<svg width="1440" height="750" viewBox="0 0 1440 750" fill="none" xmlns="http://www.w3.org/2000/svg">
<rect width="1440" height="750" fill="#017EFA"/>
<mask id="mask0" mask-type="alpha" maskUnits="userSpaceOnUse" x="0" y="0" width="1440" height="750">
<rect width="1440" height="750" fill="#017EFA"/>
</mask>
<g mask="url(#mask0)">
<path d="M1364 719.5C1314 644.999 1189 400 887.5 476.499C848 486.499 660.819 528.238 561.5 503.5C425 469.5 241 280.999 -0.5 423.499" stroke="#1E8FFF" stroke-width="2"/>
<path d="M1142 754.999C1101.02 677.68 969.977 544.804 773.665 631.847C718.689 649.782 648.221 683.858 543.768 623.477C439.314 563.097 373.344 504.51 216.414 541.575C90.8701 571.227 35.828 696.213 24 754.999" stroke="#3198FF" stroke-width="2"/>
<path d="M145 756.608C194.333 666.738 333.5 521.672 495.5 660.362C698 833.724 867 565.312 1021 758.999" stroke="#3198FF" stroke-width="2"/>
<path d="M248 758.999C289 710.699 458.3 673.56 561.5 751" stroke="#3198FF" stroke-width="2"/>
<path d="M376 750.275C389.667 743.275 426.9 733.475 466.5 750.275" stroke="#3198FF" stroke-width="2"/>
<path d="M-0.5 550.001C65 487 237.173 402.116 376.5 474C549 562.998 616.869 590.134 747 563.001C876.5 536 1089 483.499 1258.5 752.499" stroke="#1E8FFF" stroke-width="2"/>
<path d="M1442 663.5C1365 532 1154.8 301.6 866 436C811.5 461.5 640.5 512 365 360.5C144.6 239.3 -17.8333 314.333 -71.5 367" stroke="#1E8FFF" stroke-width="2"/>
</g>
</svg>
