<svg width="105" height="24" viewBox="0 0 105 24" fill="none" xmlns="http://www.w3.org/2000/svg">
<path d="M-0.000274658 23.018V0.748001H6.83373C11.7751 0.748001 14.2457 2.67467 14.2457 6.528C14.2457 7.77467 13.9284 8.85133 13.2937 9.758C12.6591 10.6647 11.7977 11.2313 10.7097 11.458C11.9791 11.6393 12.9651 12.1947 13.6677 13.124C14.3931 14.0307 14.7671 15.2207 14.7897 16.694C14.7897 20.91 12.0357 23.018 6.52773 23.018H-0.000274658ZM7.03772 19.958C8.53373 19.958 9.59906 19.6293 10.2337 18.972C10.8684 18.3147 11.1857 17.442 11.1857 16.354C11.1857 15.2433 10.8344 14.4387 10.1317 13.94C9.45173 13.4413 8.36373 13.192 6.86773 13.192H3.53573V19.958H7.03772ZM10.7777 6.8C10.7777 4.80533 9.54239 3.808 7.07173 3.808H3.53573V10.132H6.79973C9.45173 10.132 10.7777 9.02133 10.7777 6.8Z" fill="#101010"/>
<path d="M17.1357 14.96C17.1357 12.2173 17.7477 10.1433 18.9717 8.738C20.1957 7.31 21.8957 6.596 24.0717 6.596C26.2477 6.596 27.9251 7.242 29.1037 8.534C30.3051 9.80333 30.9284 11.6733 30.9737 14.144L30.8377 16.66H20.9097C21.1137 19.108 22.3377 20.332 24.5817 20.332C26.1457 20.332 27.8004 20.0487 29.5457 19.482L30.2597 22.44C29.5344 22.6893 28.5937 22.9047 27.4377 23.086C26.2817 23.29 25.3297 23.392 24.5817 23.392C19.6177 23.392 17.1357 20.5813 17.1357 14.96ZM24.2077 9.758C23.1424 9.758 22.3377 10.0753 21.7937 10.71C21.2724 11.322 20.9777 12.3533 20.9097 13.804H27.1997C27.1997 11.1067 26.2024 9.758 24.2077 9.758Z" fill="#101010"/>
<path d="M33.2517 22.27L33.9997 19.176C36.1531 19.856 37.8644 20.196 39.1337 20.196C40.4031 20.196 41.2644 20.0713 41.7177 19.822C42.1711 19.5953 42.3977 19.1873 42.3977 18.598C42.3977 18.0087 42.1937 17.5893 41.7857 17.34C41.3777 17.0907 40.6071 16.83 39.4737 16.558C37.2297 16.014 35.6657 15.4133 34.7817 14.756C33.8977 14.076 33.4557 12.9767 33.4557 11.458C33.4557 8.21667 35.5411 6.596 39.7117 6.596C41.5024 6.596 43.5764 6.89067 45.9337 7.48L45.2877 10.71C43.0437 10.0753 41.3097 9.758 40.0857 9.758C38.8617 9.758 38.0344 9.87133 37.6037 10.098C37.1957 10.302 36.9917 10.6647 36.9917 11.186C36.9917 11.7073 37.1957 12.0927 37.6037 12.342C38.0344 12.5687 39.1224 12.92 40.8677 13.396C42.6131 13.872 43.8937 14.4273 44.7097 15.062C45.5257 15.674 45.9337 16.728 45.9337 18.224C45.9337 21.6467 43.8257 23.358 39.6097 23.358C37.6377 23.358 35.5184 22.9953 33.2517 22.27Z" fill="#101010"/>
<path d="M52.0537 6.868L52.1217 7.854C53.9577 7.01533 55.3971 6.596 56.4397 6.596C58.2757 6.596 59.6244 7.14 60.4857 8.228C61.3697 9.29333 61.8117 10.9707 61.8117 13.26V23.018H58.3097V13.362C58.3097 12.274 58.1171 11.424 57.7317 10.812C57.3464 10.2 56.7457 9.894 55.9297 9.894C55.1137 9.894 53.8557 10.2907 52.1557 11.084V23.018H48.6537V6.868H52.0537Z" fill="#101010"/>
<path d="M64.4637 23.018V19.89H69.5297V9.996H64.7357V6.868H73.0317V19.89H77.8257V23.018H64.4637ZM71.0937 4.522C70.4137 4.522 69.8697 4.318 69.4617 3.91C69.0764 3.47933 68.8837 2.924 68.8837 2.244C68.8837 1.564 69.0877 1.02 69.4957 0.612C69.9037 0.204 70.4477 0 71.1277 0C71.8304 0 72.3631 0.204 72.7257 0.612C73.1111 0.997334 73.3037 1.54133 73.3037 2.244C73.3037 2.94667 73.1111 3.502 72.7257 3.91C72.3404 4.318 71.7964 4.522 71.0937 4.522Z" fill="#101010"/>
<path d="M80.6477 23.018V0.408001H84.1497V13.362L86.3937 13.124C87.6631 11.492 88.7737 9.724 89.7257 7.82L90.2017 6.868H94.0097C92.5817 9.88267 90.9951 12.3987 89.2497 14.416C90.7004 16.4787 92.1624 18.9153 93.6357 21.726L94.3157 23.018H90.3377C89.2271 20.6153 87.9577 18.3147 86.5297 16.116L84.1497 16.354V23.018H80.6477Z" fill="#101010"/>
<path d="M99.6197 23.018V18.088H104.55V23.018H99.6197Z" fill="#101010"/>
</svg>
