<svg width="107" height="24" viewBox="0 0 107 24" fill="none" xmlns="http://www.w3.org/2000/svg">
<path d="M-0.000274658 23.6163V0.767442H6.99387C12.051 0.767442 14.5796 2.74419 14.5796 6.69767C14.5796 7.97674 14.2548 9.0814 13.6053 10.0116C12.9557 10.9419 12.0742 11.5233 10.9607 11.7558C12.2598 11.9419 13.2689 12.5116 13.988 13.4651C14.7304 14.3953 15.1131 15.6163 15.1363 17.1279C15.1363 21.4535 12.3178 23.6163 6.6807 23.6163H-0.000274658ZM7.20265 20.4767C8.73371 20.4767 9.82401 20.1395 10.4735 19.4651C11.1231 18.7907 11.4479 17.8953 11.4479 16.7791C11.4479 15.6395 11.0883 14.814 10.3692 14.3023C9.67322 13.7907 8.55973 13.5349 7.02867 13.5349H3.61859V20.4767H7.20265ZM11.0303 6.97674C11.0303 4.93023 9.76601 3.90698 7.23745 3.90698H3.61859V10.3953H6.95907C9.67322 10.3953 11.0303 9.25581 11.0303 6.97674Z" fill="white"/>
<path d="M17.5373 15.3488C17.5373 12.5349 18.1636 10.407 19.4163 8.96512C20.669 7.5 22.4088 6.76744 24.6358 6.76744C26.8628 6.76744 28.5795 7.43023 29.7857 8.75581C31.0152 10.0581 31.6532 11.9767 31.6996 14.5116L31.5604 17.093H21.3997C21.6085 19.6047 22.8612 20.8605 25.1578 20.8605C26.7584 20.8605 28.4519 20.5698 30.2381 19.9884L30.9688 23.0233C30.2265 23.2791 29.2638 23.5 28.0807 23.686C26.8976 23.8953 25.9233 24 25.1578 24C20.0774 24 17.5373 21.1163 17.5373 15.3488ZM24.775 10.0116C23.6847 10.0116 22.8612 10.3372 22.3044 10.9884C21.7709 11.6163 21.4693 12.6744 21.3997 14.1628H27.8371C27.8371 11.3953 26.8164 10.0116 24.775 10.0116Z" fill="white"/>
<path d="M34.0309 22.8488L34.7965 19.6744C37.0003 20.3721 38.7517 20.7209 40.0508 20.7209C41.3499 20.7209 42.2314 20.593 42.6953 20.3372C43.1593 20.1046 43.3913 19.686 43.3913 19.0814C43.3913 18.4767 43.1825 18.0465 42.7649 17.7907C42.3474 17.5349 41.5586 17.2674 40.3988 16.9884C38.1022 16.4302 36.5015 15.814 35.5968 15.1395C34.6921 14.4419 34.2397 13.314 34.2397 11.7558C34.2397 8.43023 36.3739 6.76744 40.6423 6.76744C42.475 6.76744 44.5976 7.06977 47.0101 7.67442L46.349 10.9884C44.0524 10.3372 42.2778 10.0116 41.0251 10.0116C39.7724 10.0116 38.9257 10.1279 38.4849 10.3605C38.0674 10.5698 37.8586 10.9419 37.8586 11.4767C37.8586 12.0116 38.0674 12.407 38.4849 12.6628C38.9257 12.8953 40.0392 13.2558 41.8254 13.7442C43.6117 14.2326 44.9223 14.8023 45.7575 15.4535C46.5926 16.0814 47.0101 17.1628 47.0101 18.6977C47.0101 22.2093 44.8527 23.9651 40.5379 23.9651C38.5197 23.9651 36.3507 23.593 34.0309 22.8488Z" fill="white"/>
<path d="M53.2735 7.04651L53.3431 8.05814C55.2222 7.19767 56.6952 6.76744 57.7623 6.76744C59.6414 6.76744 61.0216 7.32558 61.9031 8.44186C62.8079 9.53488 63.2602 11.2558 63.2602 13.6047V23.6163H59.6762V13.7093C59.6762 12.593 59.479 11.7209 59.0846 11.093C58.6902 10.4651 58.0755 10.1512 57.2404 10.1512C56.4053 10.1512 55.1178 10.5581 53.3779 11.3721V23.6163H49.7939V7.04651H53.2735Z" fill="white"/>
<path d="M65.9744 23.6163V20.407H71.1591V10.2558H66.2527V7.04651H74.7431V20.407H79.6495V23.6163H65.9744ZM72.7597 4.63953C72.0638 4.63953 71.507 4.43023 71.0895 4.01163C70.6951 3.56977 70.4979 3 70.4979 2.30233C70.4979 1.60465 70.7067 1.04651 71.1243 0.627907C71.5418 0.209302 72.0986 0 72.7945 0C73.5137 0 74.0588 0.209302 74.43 0.627907C74.8243 1.02326 75.0215 1.5814 75.0215 2.30233C75.0215 3.02326 74.8243 3.59302 74.43 4.01163C74.0356 4.43023 73.4789 4.63953 72.7597 4.63953Z" fill="white"/>
<path d="M82.5376 23.6163V0.418606H86.1217V13.7093L88.4183 13.4651C89.7173 11.7907 90.854 9.97674 91.8283 8.02326L92.3155 7.04651H96.2127C94.7513 10.1395 93.1274 12.7209 91.3412 14.7907C92.8259 16.907 94.3221 19.407 95.83 22.2907L96.5259 23.6163H92.4547C91.318 21.1512 90.0189 18.7907 88.5574 16.5349L86.1217 16.7791V23.6163H82.5376Z" fill="white"/>
<path d="M101.954 23.6163V18.5581H107V23.6163H101.954Z" fill="white"/>
</svg>
